# xmcd
#
# Track frame offsets: 
#        150
#        19968
#        43677
#        63071
#        83355
#        106782
#        130406
#        153556
#        176338
#        192809
#        211069
#        234891
#
# Disc length: 3373 seconds
#
# Revision: 3
# Processed by: cddbd v1.5.1PL0 Copyright (c) Steve Scherf et al.
# Submitted via: ExactAudioCopy v0.95a5
#
DISCID=890d2b0c
DTITLE=Lam Nhat Tien and Tu Quyen - Eagle - Dem Co Don
DYEAR=2001
DGENRE=Vietnamese
TTITLE0=Lam Nhat Tien - Tinh Don Phuong - Chu Minh Ky
TTITLE1=Tu Quyen - Cho Em Loi Cuoi - Truong Huy
TTITLE2=Lam Nhat Tien - Noi Nho Diu Em - Bao Chan
TTITLE3=Tu Quyen - Di Ve Noi Ha - Le Quang
TTITLE4=Tu Quyen and Lam Nhat Tien - Tinh Yeu Muon Thuo - Le Huu Ha
TTITLE5=Lam Nhat Tien - Dem Co Don - Nguyen Nhat Huy
TTITLE6=Tu Quyen - Tinh Da Xa
TTITLE7=Lam Nhat Tien - Khong Gia Dinh - Quoc Thi
TTITLE8=Tu Quyen - Em Van Doi Anh - Khuc Lan
TTITLE9=Lam Nhat Tien - Hay De Mua Roi - Kim Tuan
TTITLE10=Cho Em Loi Cuoi (Instrumental)
TTITLE11=Hay De Mua Roi (Instrumental)
EXTD=Eagle Productions
EXTT0=Lam Nhat Tien
EXTT1=Tu Quyen
EXTT2=Lam Nhat Tien
EXTT3=Tu Quyen
EXTT4=Lam Nhat Tien and Tu Quyen
EXTT5=Lam Nhat Tien
EXTT6=Tu Quyen
EXTT7=Lam Nhat Tien
EXTT8=Tu Quyen
EXTT9=Lam Nhat Tien
EXTT10=Tu Quyen
EXTT11=Lam Nhat Tien
PLAYORDER=
